<svg width="52" height="18" viewBox="0 0 52 18" fill="none" xmlns="http://www.w3.org/2000/svg">
<path d="M52 0H0V18H50L52 14.4L50 10.5L52 6.6L50 3.6L52 0Z" fill="#FF3535"/>
<path d="M5.4655 12V11.0785L7.755 9.131C8.6575 8.352 8.9995 7.9435 8.9995 7.3355C8.9995 6.6895 8.534 6.3 7.926 6.3C7.318 6.3 6.9 6.623 6.3965 7.2975L5.5605 6.642C6.197 5.7585 6.8335 5.255 8.0115 5.255C9.3035 5.255 10.206 6.053 10.206 7.2405V7.2595C10.206 8.314 9.655 8.865 8.477 9.834L7.109 10.974H10.2725V12H5.4655ZM13.4957 12.114C11.7477 12.114 10.6077 10.594 10.6077 8.694V8.675C10.6077 6.775 11.7667 5.236 13.5147 5.236C15.2532 5.236 16.4027 6.756 16.4027 8.656V8.675C16.4027 10.575 15.2437 12.114 13.4957 12.114ZM13.5147 11.0595C14.5407 11.0595 15.1962 9.9955 15.1962 8.694V8.675C15.1962 7.364 14.5217 6.2905 13.4957 6.2905C12.4697 6.2905 11.8142 7.345 11.8142 8.656V8.675C11.8142 9.986 12.4792 11.0595 13.5147 11.0595ZM18.1947 8.675C17.2637 8.675 16.6367 7.915 16.6367 6.9935V6.9745C16.6367 6.034 17.2732 5.274 18.2137 5.274C19.1637 5.274 19.7717 6.0435 19.7717 6.9555V6.9745C19.7717 7.8865 19.1447 8.675 18.1947 8.675ZM18.1947 6.0055C17.7482 6.0055 17.4822 6.433 17.4822 6.9555V6.9745C17.4822 7.516 17.7862 7.9435 18.2137 7.9435C18.6602 7.9435 18.9262 7.516 18.9262 6.9935V6.9745C18.9262 6.4425 18.6222 6.0055 18.1947 6.0055ZM19.9237 8.466L22.1752 5.35H23.1157L20.4937 8.8935L18.2517 12H17.3112L19.9237 8.466ZM22.2132 12.076C21.2822 12.076 20.6552 11.316 20.6552 10.3945V10.3755C20.6552 9.435 21.2917 8.675 22.2322 8.675C23.1632 8.675 23.7902 9.4445 23.7902 10.3565V10.3755C23.7902 11.2875 23.1537 12.076 22.2132 12.076ZM22.2322 11.3445C22.6787 11.3445 22.9447 10.917 22.9447 10.3945V10.3755C22.9447 9.8435 22.6407 9.4065 22.2132 9.4065C21.7667 9.4065 21.5007 9.834 21.5007 10.3565V10.3755C21.5007 10.917 21.8047 11.3445 22.2322 11.3445ZM29.5988 12.114C27.5563 12.114 26.1313 10.5655 26.1313 8.694V8.675C26.1313 6.813 27.5753 5.236 29.6178 5.236C31.6603 5.236 33.0853 6.7845 33.0853 8.656V8.675C33.0853 10.537 31.6413 12.114 29.5988 12.114ZM29.6178 11.031C30.9383 11.031 31.8598 9.986 31.8598 8.694V8.675C31.8598 7.383 30.9288 6.319 29.5988 6.319C28.2783 6.319 27.3568 7.364 27.3568 8.656V8.675C27.3568 9.967 28.2878 11.031 29.6178 11.031ZM33.7371 12V5.35H38.6866V6.414H34.9056V8.2285H38.2591V9.2925H34.9056V12H33.7371ZM39.2115 12V5.35H44.161V6.414H40.38V8.2285H43.7335V9.2925H40.38V12H39.2115Z" fill="white"/>
</svg>
