<svg width="20" height="20" viewBox="0 0 20 20" fill="none" xmlns="http://www.w3.org/2000/svg">
<path d="M6.17419 5.3754C5.72836 5.3754 5.26169 5.58207 4.89836 5.90457L4.85753 5.6279C4.85235 5.59241 4.83462 5.55995 4.80756 5.5364C4.7805 5.51286 4.74589 5.49979 4.71003 5.49957H4.32253C4.28841 5.49957 4.25568 5.51306 4.23148 5.53711C4.20728 5.56115 4.19358 5.59379 4.19336 5.6279V10.9046C4.19336 10.9754 4.25169 11.0329 4.32253 11.0329H4.82919C4.86323 11.0329 4.89587 11.0194 4.91994 10.9953C4.94401 10.9712 4.95753 10.9386 4.95753 10.9046V9.08374C5.27836 9.36957 5.69669 9.53457 6.14336 9.53457C7.20419 9.53457 7.83169 8.61624 7.83169 7.4729C7.83169 6.40457 7.42169 5.37624 6.17336 5.37624M6.68003 8.6479C6.48253 8.84207 6.26253 8.8954 5.93003 8.8954C5.63503 8.8954 5.24669 8.74124 4.95669 8.52624V6.36707C5.25836 6.13457 5.64419 6.00874 5.96503 6.00874C6.80419 6.00874 7.03253 6.66874 7.03253 7.42457C7.03753 7.9329 6.94419 8.3879 6.68003 8.6479ZM11.5409 9.30874C11.5409 9.37957 11.4825 9.4379 11.4117 9.4379H11.0334C10.9974 9.43765 10.9627 9.42447 10.9356 9.40075C10.9085 9.37704 10.8909 9.34438 10.8859 9.30874L10.8475 9.05124C10.6624 9.20581 10.4536 9.32961 10.2292 9.4179C9.78503 9.5904 9.27169 9.61957 8.83753 9.35207C8.52336 9.1604 8.35669 8.7829 8.35669 8.39374C8.35669 8.0929 8.44919 7.79374 8.65503 7.57707C8.92919 7.28207 9.32669 7.13624 9.80669 7.13624C10.0967 7.13624 10.5117 7.1704 10.8142 7.26957V6.7504C10.8142 6.22374 10.5925 5.99624 10.0075 5.99624C9.56086 5.99624 9.21919 6.0629 8.74336 6.21124C8.66753 6.21374 8.62253 6.15624 8.62253 6.0854V5.78957C8.62253 5.71874 8.68336 5.6504 8.74919 5.62957C9.08836 5.48124 9.57003 5.38957 10.0817 5.37207C10.7484 5.37207 11.54 5.52207 11.54 6.54874L11.5409 9.30874ZM10.8142 8.5529V7.77124C10.5609 7.70207 10.1409 7.6729 9.97836 7.6729C9.72169 7.6729 9.44003 7.73374 9.29336 7.89207C9.18694 8.01454 9.13016 8.17238 9.13419 8.33457C9.13419 8.5429 9.20586 8.75124 9.37419 8.85457C9.56919 8.98707 9.87253 8.97124 10.1567 8.8904C10.43 8.8129 10.6867 8.6754 10.815 8.5529M12.2567 10.8979V10.6196C12.2567 10.5412 12.295 10.4862 12.3775 10.4912C12.5317 10.5129 12.7492 10.5354 12.9042 10.5029C13.1067 10.4612 13.2509 10.3179 13.3375 10.1221C13.4575 9.8454 13.5375 9.62207 13.5875 9.47624L12.0542 5.67624C12.0292 5.61207 12.0209 5.4929 12.15 5.4929H12.6859C12.7884 5.4929 12.83 5.5579 12.8525 5.62124L13.965 8.7079L15.0259 5.62124C15.0475 5.5579 15.0917 5.4929 15.1925 5.4929H15.6984C15.8259 5.4929 15.8192 5.61207 15.7934 5.67624L14.2717 9.5954C14.075 10.1162 13.8134 10.9471 13.2217 11.0912C12.9259 11.1687 12.5525 11.1412 12.3325 11.0496C12.2775 11.0212 12.2567 10.9471 12.2567 10.8979ZM17.2459 10.7396C16.7275 10.7471 16.115 10.8629 15.6509 11.1896C15.5075 11.2887 15.5325 11.4262 15.6925 11.4079C16.2142 11.3454 17.3767 11.2046 17.5842 11.4704C17.7925 11.7354 17.3542 12.8312 17.16 13.3204C17.1 13.4671 17.2267 13.5279 17.3609 13.4162C18.23 12.6887 18.4559 11.1629 18.2775 10.9437C18.1884 10.8337 17.7642 10.7321 17.2459 10.7396Z" fill="#606480"/>
<path d="M1.78603 11.2948C1.66436 11.3115 1.61269 11.4648 1.73936 11.5865C3.91519 13.6281 6.79102 14.6273 9.98353 14.6273C12.261 14.6273 14.9052 13.884 16.7302 12.484C17.0319 12.2506 16.7744 11.9023 16.4652 12.0398C14.4816 12.9117 12.3402 13.3672 10.1735 13.3781C7.17602 13.3781 4.27353 12.7523 1.92603 11.3306C1.88483 11.303 1.83542 11.2904 1.78603 11.2948Z" fill="#606480"/>
</svg>
