<svg width="16" height="20" viewBox="0 0 16 20" fill="none" xmlns="http://www.w3.org/2000/svg">
<path d="M11.1485 6.83967C10.7543 6.80884 10.3318 6.90301 9.68347 7.15051C9.73763 7.12967 9.06513 7.39217 8.87597 7.45884C8.45763 7.60467 8.11347 7.68467 7.72763 7.68467C7.34597 7.68467 6.9943 7.60801 6.59013 7.47217C6.44861 7.42395 6.30829 7.37227 6.1693 7.31717L5.79513 7.16967C5.25513 6.95801 4.9518 6.87801 4.6993 6.88467C3.73847 6.89634 2.83013 7.45134 2.3018 8.36967C1.22513 10.2388 1.8218 13.6188 3.39597 15.8955C4.23347 17.0988 4.69263 17.5288 4.8768 17.523C5.0618 17.5147 5.19847 17.4755 5.53013 17.3355L5.66847 17.2763C6.5068 16.9188 7.09347 16.7613 7.97763 16.7613C8.82847 16.7613 9.3968 16.9163 10.2018 17.263L10.3418 17.323C10.6726 17.4647 10.7918 17.4963 11.0018 17.4913C11.2993 17.4872 11.6668 17.1438 12.4826 15.9463C12.706 15.6205 12.9035 15.2772 13.0743 14.9297C12.9621 14.8374 12.8534 14.7409 12.7485 14.6405C11.6735 13.6172 11.0093 12.2372 10.991 10.5322C10.9736 9.2706 11.3885 8.04107 12.1668 7.04801C11.8402 6.92712 11.4971 6.85686 11.1493 6.83967M11.2785 5.17801C11.8685 5.21801 13.5585 5.39801 14.6585 7.00801C14.5685 7.05801 12.6385 8.17801 12.6585 10.518C12.6885 13.318 15.1085 14.248 15.1385 14.258C15.1185 14.328 14.7485 15.588 13.8585 16.888C13.0885 18.018 12.2885 19.138 11.0285 19.158C9.78847 19.188 9.38847 18.428 7.97847 18.428C6.55847 18.428 6.11847 19.138 4.94847 19.188C3.72847 19.228 2.80847 17.968 2.02847 16.848C0.438466 14.548 -0.771534 10.368 0.858466 7.53801C1.66847 6.12801 3.10847 5.23801 4.67847 5.21801C5.86847 5.18801 6.99847 6.01801 7.72847 6.01801C8.44847 6.01801 9.73847 5.05801 11.2785 5.17801ZM10.3285 3.65801C9.67847 4.43801 8.61847 5.04801 7.58847 4.96801C7.44847 3.90801 7.96847 2.79801 8.56847 2.10801C9.23847 1.32801 10.3585 0.748008 11.2885 0.708008C11.4085 1.78801 10.9785 2.87801 10.3285 3.65801Z" fill="#606480"/>
</svg>
